<svg xmlns="http://www.w3.org/2000/svg" viewBox="0 0 23.78 54.38"><defs><style>.cls-1,.cls-2{fill:#fff}.cls-2{fill-rule:evenodd}</style></defs><g id="Layer_2" data-name="Layer 2"><g id="Capa_1" data-name="Capa 1"><path class="cls-1" d="M12.76 0a11 11 0 1 0 11 11 11 11 0 0 0-11-11Zm0 20.46A9.45 9.45 0 1 1 22.21 11a9.46 9.46 0 0 1-9.45 9.46Z"/><path class="cls-1" d="M12.76 3.14A7.88 7.88 0 1 0 20.64 11a7.88 7.88 0 0 0-7.88-7.86Zm4.9 9.94a2.59 2.59 0 0 1-2.59 2.59h-4.61a2.59 2.59 0 0 1-2.59-2.59V8.47a2.59 2.59 0 0 1 2.59-2.59h4.61a2.59 2.59 0 0 1 2.59 2.59Z"/><path class="cls-1" d="M15.36 7.63a.57.57 0 1 0 .57.57.57.57 0 0 0-.57-.57ZM12.8 8.36a2.41 2.41 0 1 0 2.42 2.41 2.42 2.42 0 0 0-2.42-2.41Z"/><path class="cls-2" d="M11 32.35a11 11 0 1 0 11 11 11 11 0 0 0-11-11Zm0 20.46a9.45 9.45 0 1 1 9.45-9.45A9.46 9.46 0 0 1 11 52.81Z"/><path class="cls-2" d="M11 35.49a7.88 7.88 0 1 0 7.88 7.87A7.87 7.87 0 0 0 11 35.49Zm1.93 4.42a.12.12 0 0 1-.13.12h-1a.46.46 0 0 0-.45.46v1.06h1.45a.12.12 0 0 1 .12.14l-.12 1.5a.13.13 0 0 1-.13.11h-1.33v5a.12.12 0 0 1-.13.13H9.4a.13.13 0 0 1-.13-.13v-5h-.91a.13.13 0 0 1-.13-.13v-1.49a.13.13 0 0 1 .13-.13h.91V40.1a1.83 1.83 0 0 1 1.82-1.82h1.72a.13.13 0 0 1 .13.13Z"/></g></g></svg>